<?xml version="1.0" standalone="no"?>
<!DOCTYPE svg PUBLIC "-//W3C//DTD SVG 20010904//EN"
 "http://www.w3.org/TR/2001/REC-SVG-20010904/DTD/svg10.dtd">
<svg version="1.0" xmlns="http://www.w3.org/2000/svg"
 width="128.000000pt" height="128.000000pt" viewBox="0 0 128.000000 128.000000"
 preserveAspectRatio="xMidYMid meet">

<g transform="translate(0.000000,128.000000) scale(0.100000,-0.100000)"
fill="#000000" stroke="none">
<path d="M548 1265 c-61 -17 -107 -45 -156 -99 -49 -53 -65 -84 -82 -154 -23
-99 7 -214 77 -292 25 -28 44 -52 42 -53 -2 -1 -40 -20 -84 -41 -104 -51 -223
-168 -277 -271 -39 -76 -68 -166 -68 -213 0 -36 35 -90 79 -119 34 -23 37 -23
372 -23 l339 0 16 25 c15 23 15 27 0 50 l-16 25 -329 0 c-318 0 -328 1 -346
20 -17 19 -18 26 -7 68 37 143 157 290 285 351 141 67 292 76 436 27 79 -27
104 -24 116 15 8 25 -14 52 -58 70 -18 7 -34 14 -36 15 -2 2 17 26 42 54 89
99 110 255 50 374 -20 39 -88 112 -129 137 -74 45 -177 59 -266 34z m182 -106
c60 -27 98 -64 126 -124 31 -64 31 -125 0 -191 -67 -145 -248 -188 -366 -87
-138 118 -110 321 55 399 62 29 125 30 185 3z"/>
<path d="M1000 451 c-5 -11 -10 -51 -10 -90 l0 -71 -71 0 c-85 0 -109 -11
-109 -48 0 -44 16 -52 102 -52 l78 0 0 -73 c0 -78 16 -117 50 -117 38 0 50 27
50 111 l0 79 79 0 c84 0 111 12 111 50 0 34 -39 50 -117 50 l-73 0 0 78 c0 47
-5 83 -12 90 -19 19 -66 15 -78 -7z"/>
</g>
</svg>
