<?xml version="1.0" standalone="no"?>
<!DOCTYPE svg PUBLIC "-//W3C//DTD SVG 20010904//EN"
 "http://www.w3.org/TR/2001/REC-SVG-20010904/DTD/svg10.dtd">
<svg version="1.0" xmlns="http://www.w3.org/2000/svg"
 width="128.000000pt" height="128.000000pt" viewBox="0 0 128.000000 128.000000"
 preserveAspectRatio="xMidYMid meet">

<g transform="translate(0.000000,128.000000) scale(0.100000,-0.100000)"
fill="#000000" stroke="none">
<path d="M520 1234 c-107 -28 -200 -82 -280 -163 -83 -83 -143 -183 -138 -229
3 -23 8 -27 33 -27 26 0 33 7 56 53 163 320 563 399 831 163 151 -133 212
-367 146 -557 -158 -451 -761 -489 -977 -62 -23 46 -30 53 -56 53 -117 0 79
-283 255 -368 99 -48 176 -67 275 -67 287 1 524 186 596 468 45 179 1 377
-120 528 -77 97 -209 180 -333 209 -79 18 -216 18 -288 -1z"/>
<path d="M591 883 c-14 -25 7 -57 84 -133 l66 -65 -362 -5 c-331 -5 -363 -7
-373 -23 -8 -12 -8 -22 0 -35 10 -15 42 -17 373 -22 l362 -5 -66 -65 c-77 -76
-98 -108 -84 -133 21 -37 52 -19 177 106 67 67 122 129 122 137 0 9 -55 70
-123 138 -124 124 -155 142 -176 105z"/>
</g>
</svg>
