<?xml version="1.0" standalone="no"?>
<!DOCTYPE svg PUBLIC "-//W3C//DTD SVG 20010904//EN"
 "http://www.w3.org/TR/2001/REC-SVG-20010904/DTD/svg10.dtd">
<svg version="1.0" xmlns="http://www.w3.org/2000/svg"
 width="128.000000pt" height="128.000000pt" viewBox="0 0 128.000000 128.000000"
 preserveAspectRatio="xMidYMid meet">

<g transform="translate(0.000000,128.000000) scale(0.100000,-0.100000)"
fill="#000000" stroke="none">
<path d="M12 1188 c-17 -17 -17 -759 0 -776 9 -9 89 -12 300 -12 l288 0 0
-120 0 -119 -71 -3 c-55 -2 -74 -7 -83 -20 -8 -13 -8 -23 0 -35 10 -16 31 -18
194 -18 163 0 184 2 194 18 8 12 8 22 0 35 -9 13 -28 18 -83 20 l-71 3 0 119
0 120 288 0 c211 0 291 3 300 12 17 17 17 759 0 776 -17 17 -1239 17 -1256 0z
m1188 -388 l0 -320 -560 0 -560 0 0 320 0 320 560 0 560 0 0 -320z"/>
<path d="M475 1031 c-11 -5 -31 -21 -45 -36 -20 -21 -25 -37 -25 -81 0 -52 -2
-56 -53 -106 -50 -51 -54 -53 -107 -53 -48 0 -58 -4 -87 -33 -28 -28 -33 -39
-33 -82 0 -43 5 -54 33 -82 28 -28 39 -33 82 -33 43 0 54 5 82 33 29 29 33 39
33 87 0 52 2 57 53 108 52 52 53 53 112 52 59 -1 62 -2 113 -53 50 -50 52 -54
52 -107 0 -48 4 -58 33 -87 28 -28 39 -33 82 -33 43 0 54 5 82 33 29 29 33 39
33 87 0 48 4 59 33 87 28 29 39 33 87 33 48 0 58 4 87 33 28 28 33 39 33 82 0
43 -5 54 -33 82 -28 28 -39 33 -82 33 -43 0 -54 -5 -82 -33 -29 -29 -33 -39
-33 -87 0 -48 -4 -59 -32 -87 -29 -29 -39 -32 -93 -33 -59 -1 -60 0 -112 52
-51 51 -53 56 -53 108 0 48 -4 59 -31 86 -33 33 -92 46 -129 30z m75 -86 c26
-32 -13 -81 -47 -59 -35 22 -23 74 17 74 10 0 23 -7 30 -15z m520 -40 c26 -32
-13 -81 -47 -59 -35 22 -23 74 17 74 10 0 23 -7 30 -15z m-800 -240 c26 -32
-13 -81 -47 -59 -35 22 -23 74 17 74 10 0 23 -7 30 -15z m560 0 c26 -32 -13
-81 -47 -59 -35 22 -23 74 17 74 10 0 23 -7 30 -15z"/>
</g>
</svg>
