<?xml version="1.0" standalone="no"?>
<!DOCTYPE svg PUBLIC "-//W3C//DTD SVG 20010904//EN"
 "http://www.w3.org/TR/2001/REC-SVG-20010904/DTD/svg10.dtd">
<svg version="1.0" xmlns="http://www.w3.org/2000/svg"
 width="64.000000pt" height="64.000000pt" viewBox="0 0 64.000000 64.000000"
 preserveAspectRatio="xMidYMid meet">

<g transform="translate(0.000000,64.000000) scale(0.100000,-0.100000)"
fill="#000000" stroke="none">
<path d="M241 589 c-114 -33 -201 -149 -201 -270 0 -115 87 -233 195 -265 220
-63 414 131 351 351 -23 79 -100 156 -176 179 -59 18 -118 19 -169 5z m153
-41 c55 -16 138 -99 154 -154 22 -75 12 -146 -30 -207 l-20 -28 -21 43 c-65
129 -249 129 -314 0 l-21 -43 -20 28 c-64 93 -54 205 25 293 65 72 152 96 247
68z m2 -307 c30 -18 64 -74 64 -104 0 -26 -69 -52 -140 -52 -71 0 -140 26
-140 52 0 30 34 86 64 104 40 25 112 25 152 0z"/>
<path d="M271 506 c-87 -48 -50 -186 49 -186 51 0 100 49 100 99 0 75 -83 124
-149 87z m89 -46 c11 -11 20 -29 20 -40 0 -26 -34 -60 -60 -60 -26 0 -60 34
-60 60 0 11 9 29 20 40 11 11 29 20 40 20 11 0 29 -9 40 -20z"/>
</g>
</svg>
